<svg xmlns="http://www.w3.org/2000/svg" viewBox="0 0 954.626 219.064" width="957px" height="220px" fill="#fff"><path d="M141.375 161.273c0 .8-.268 1.2-.8 1.2-2.533 0-6.467-.132-11.797-.4-5.334-.266-9.199-.4-11.598-.4-2.934 0-6.668.134-11.199.4-4.268.268-7.533.4-9.798.4-.534 0-.8-.4-.8-1.2s.266-1.2.8-1.2c4.93 0 8.53-.465 10.798-1.4 2.266-.93 3.4-2.53 3.4-4.8 0-1.865-.869-4.73-2.6-8.597L84.785 96.284H46.992l-17.198 40.793c-1.868 4.533-2.799 8.267-2.799 11.198 0 7.868 6.53 11.798 19.596 11.798.666 0 1 .4 1 1.2s-.334 1.2-1 1.2c-2.4 0-5.867-.132-10.398-.4-5.068-.266-9.467-.4-13.197-.4-3.469 0-7.468.134-11.998.4-4 .268-7.333.4-9.998.4-.666 0-1-.4-1-1.2s.334-1.2 1-1.2c3.73 0 6.898-.7 9.498-2.1 2.6-1.4 5.065-3.865 7.398-7.398 2.331-3.532 4.9-8.63 7.7-15.297l42.192-99.584c.266-.4.731-.6 1.4-.6.665 0 1.065.2 1.2.6l47.192 99.383c4.53 9.867 8.398 16.498 11.598 19.897 3.199 3.4 6.998 5.099 11.398 5.099.53 0 .8.4.8 1.2zM48.791 92.084h33.995L64.789 54.091 48.79 92.084zm119.079 3.5c2.066 3 4.63 5.499 7.699 7.499 3.064 2 7.13 4.334 12.197 6.999 5.465 2.934 9.865 5.499 13.2 7.698a30.286 30.286 0 0 1 8.398 8.299c2.265 3.334 3.398 7.334 3.398 11.998 0 4.933-1.367 9.433-4.1 13.498-2.732 4.068-6.632 7.299-11.697 9.698-5.068 2.4-10.998 3.599-17.797 3.599-9.732 0-17.796-2.334-24.195-6.998-.67-.266-1.1-.666-1.3-1.2-.2-.53-.37-1.4-.5-2.6l-2-19.796c-.133-.531.165-.865.9-1 .73-.131 1.23.068 1.5.6 1.865 7.732 5.564 14.297 11.097 19.697 5.532 5.398 11.7 8.097 18.498 8.097 4.665 0 8.698-1.365 12.098-4.098 3.399-2.732 5.1-6.965 5.1-12.699 0-6.13-2-11.128-6-14.997-4-3.865-9.8-7.798-17.397-11.797-5.334-2.932-9.568-5.5-12.699-7.7a30.387 30.387 0 0 1-7.898-8.098c-2.133-3.2-3.2-7.065-3.2-11.598 0-7.6 2.932-13.53 8.8-17.797 5.864-4.265 12.997-6.4 21.396-6.4 7.064 0 13.728 1.535 19.996 4.6 1.2.669 1.965 1.169 2.3 1.5.33.334.565.969.7 1.9l1.4 17.397c0 .534-.369.868-1.1 1-.734.134-1.17-.066-1.3-.6-.668-3.33-2.168-6.765-4.5-10.299-2.334-3.53-5.332-6.499-8.998-8.898-3.668-2.4-7.698-3.6-12.098-3.6-4.799 0-8.498 1.469-11.098 4.4-2.6 2.934-3.9 6.667-3.9 11.198 0 3.999 1.031 7.498 3.1 10.498zm69.886-21.996c-2.933 1.4-5.233 3.768-6.9 7.099-1.667 3.334-2.967 8.067-3.898 14.197 0 .269-.369.4-1.1.4-.734 0-1.1-.131-1.1-.4.4-3.065.866-7.999 1.4-14.798.531-6.798.8-11.997.8-15.597 0-.665.4-1 1.2-1s1.2.335 1.2 1c0 1.734 1 2.834 2.999 3.3 2 .468 4.465.7 7.4.7 11.728.268 21.795.4 30.194.4l17.397-.2c2.4-.132 5.53-.2 9.399-.2 4.798 0 8.329-.3 10.597-.9 2.266-.6 3.73-1.9 4.4-3.9.265-.4.731-.6 1.4-.6.665 0 1 .2 1 .6-.8 14.398-1.2 24.796-1.2 31.195 0 .269-.37.4-1.1.4-.734 0-1.1-.131-1.1-.4-.134-5.999-.834-10.664-2.1-13.997-1.269-3.331-3.368-5.73-6.299-7.2-2.933-1.465-6.999-2.199-12.198-2.199-5.733 0-9.532.9-11.397 2.7-1.87 1.8-2.8 5.433-2.8 10.898v61.19c0 4.133.4 7.133 1.2 8.998.8 1.868 2.33 3.134 4.599 3.799 2.265.669 5.999 1 11.198 1 .4 0 .6.4.6 1.2s-.2 1.2-.6 1.2c-4.134 0-7.333-.066-9.599-.201l-13.997-.2-13.397.2c-2.4.135-5.734.201-10 .201-.268 0-.399-.4-.399-1.2s.131-1.2.4-1.2c5.065 0 8.798-.331 11.198-1 2.4-.665 4.03-1.965 4.9-3.899.864-1.931 1.3-4.9 1.3-8.898v-61.59c0-3.865-.3-6.7-.901-8.498-.6-1.8-1.834-3.031-3.7-3.7-1.868-.666-4.868-1-8.998-1-5.068 0-9.067.7-11.998 2.1zm190.165 87.685c0 .8-.133 1.2-.399 1.2h-23.397c-2.399 0-6.632-4-12.698-11.998-6.067-7.999-13.366-19.062-21.895-33.195-2.534.535-5.4.8-8.599.8-3.334 0-5.868-.131-7.599-.4v28.596c0 4.133.332 7.133 1 8.998.666 1.868 2 3.134 4 3.799 1.999.669 5.264 1 9.797 1 .266 0 .4.4.4 1.2s-.134 1.2-.4 1.2c-3.733 0-6.598-.066-8.598-.201l-12.598-.2-11.798.2c-2.268.135-5.333.201-9.198.201-.269 0-.4-.4-.4-1.2s.131-1.2.4-1.2c4.4 0 7.63-.331 9.698-1 2.066-.665 3.5-1.965 4.299-3.899.8-1.931 1.2-4.9 1.2-8.898v-61.19c0-4-.369-6.93-1.1-8.799-.734-1.865-2.133-3.165-4.199-3.9-2.068-.73-5.3-1.099-9.698-1.099-.27 0-.4-.4-.4-1.2s.13-1.2.4-1.2l9.198.2c4.8.27 8.664.4 11.598.4 2.4 0 4.63-.065 6.7-.2 2.065-.13 3.83-.265 5.298-.4 4.131-.4 8.065-.6 11.798-.6 8.664 0 15.264 1.669 19.797 5 4.53 3.334 6.799 8.133 6.799 14.398 0 5.333-1.535 10.266-4.6 14.797-3.067 4.533-7.198 8.2-12.397 10.998 7.463 12.267 13.763 21.696 18.896 28.295 5.13 6.6 9.864 11.299 14.198 14.098 4.33 2.8 9.03 4.199 14.098 4.199.266 0 .4.4.4 1.2zm-65.588-46.593c8.264 0 14.029-1.83 17.296-5.498 3.266-3.666 4.9-9.03 4.9-16.098 0-14.663-6.333-21.996-18.997-21.996-5.068 0-8.367 1.069-9.899 3.2-1.534 2.133-2.299 5.867-2.299 11.198v28.595c2.4.4 5.399.6 8.999.6zm90.883 43.594c-7.267-4.4-12.897-10.33-16.896-17.797-4-7.465-6-15.53-6-24.197 0-10.398 2.7-19.362 8.1-26.895 5.398-7.53 12.262-13.229 20.595-17.097 8.33-3.865 16.83-5.8 25.496-5.8 9.33 0 17.563 2.3 24.696 6.9 7.13 4.599 12.598 10.567 16.397 17.897 3.8 7.333 5.7 14.997 5.7 22.996 0 8.932-2.4 17.298-7.2 25.095-4.799 7.8-11.267 13.998-19.396 18.597-8.133 4.6-16.998 6.899-26.596 6.899-9.332 0-17.631-2.2-24.896-6.598zm54.992-8.6c6.198-7.33 9.297-17.462 9.297-30.394 0-8.93-1.568-17.063-4.699-24.396-3.134-7.33-7.698-13.197-13.697-17.597s-13.133-6.599-21.397-6.599c-10.667 0-18.931 3.568-24.795 10.698-5.869 7.134-8.8 17.097-8.8 29.896 0 9.198 1.566 17.531 4.7 24.995 3.13 7.468 7.665 13.397 13.598 17.798 5.93 4.398 12.898 6.597 20.896 6.597 10.398 0 18.697-3.664 24.897-10.998zm64.288-4.199c0 3.87.365 6.734 1.1 8.6.73 1.867 2.13 3.199 4.198 3.998 2.066.8 5.165 1.2 9.3 1.2h13.197c7.064 0 12.698-2.2 16.897-6.599s7.03-10.464 8.499-18.197c0-.266.266-.4.8-.4.4 0 .765.069 1.1.2.33.135.5.335.5.6-.935 6.133-1.401 14.332-1.401 24.596 0 1.069-.233 1.834-.7 2.3-.468.468-1.234.7-2.299.7H545.5c-.268 0-.4-.4-.4-1.2s.132-1.2.4-1.2c4.4 0 7.6-.331 9.6-1 1.998-.665 3.33-1.965 3.998-3.899.665-1.931 1-4.9 1-8.898v-61.19c0-4-.369-6.93-1.1-8.799-.734-1.865-2.1-3.165-4.1-3.9-2-.73-5.133-1.099-9.398-1.099-.268 0-.4-.4-.4-1.2s.132-1.2.4-1.2l8.999.2c5.065.27 8.999.4 11.797.4 3.331 0 7.53-.13 12.599-.4l8.398-.2c.4 0 .6.4.6 1.2s-.2 1.2-.6 1.2c-4.399 0-7.598.369-9.598 1.1-2 .734-3.368 2.069-4.1 4-.734 1.933-1.1 4.899-1.1 8.898v60.19zm88.684 12.799c-7.268-4.4-12.898-10.33-16.897-17.797-4-7.465-6-15.53-6-24.197 0-10.398 2.7-19.362 8.1-26.895 5.398-7.53 12.262-13.229 20.595-17.097 8.33-3.865 16.83-5.8 25.496-5.8 9.33 0 17.563 2.3 24.695 6.9 7.131 4.599 12.6 10.567 16.398 17.897 3.8 7.333 5.7 14.997 5.7 22.996 0 8.932-2.4 17.298-7.2 25.095-4.799 7.8-11.267 13.998-19.397 18.597-8.132 4.6-16.997 6.899-26.595 6.899-9.332 0-17.631-2.2-24.896-6.598zm54.99-8.6c6.199-7.33 9.298-17.462 9.298-30.394 0-8.93-1.568-17.063-4.699-24.396-3.134-7.33-7.698-13.197-13.697-17.597s-13.133-6.599-21.397-6.599c-10.667 0-18.931 3.568-24.796 10.698-5.868 7.134-8.798 17.097-8.798 29.896 0 9.198 1.565 17.531 4.699 24.995 3.13 7.468 7.665 13.397 13.597 17.798 5.931 4.398 12.899 6.597 20.897 6.597 10.398 0 18.697-3.664 24.896-10.998zm61.79 8.499c-7.934-4.465-13.967-10.364-18.098-17.696-4.134-7.33-6.198-15.064-6.198-23.197 0-10.399 2.33-19.427 6.998-27.095 4.665-7.664 11.33-13.53 19.997-17.597 8.664-4.065 18.862-6.1 30.594-6.1 5.6 0 10.93.535 15.997 1.6 5.066 1.07 9.33 2.6 12.798 4.6.8.4 1.3.934 1.5 1.6.2.668.366 1.6.5 2.799l2 18.797c0 .4-.369.634-1.1.7-.735.068-1.168-.1-1.3-.5-2.934-9.199-7.333-15.929-13.197-20.197-5.868-4.264-13.199-6.399-21.996-6.399-11.733 0-21.097 4.034-28.096 12.098-7 8.068-10.498 19.097-10.498 33.094 0 9.2 1.73 17.366 5.2 24.496 3.464 7.133 8.429 12.699 14.897 16.698 6.463 4 14.028 5.999 22.696 5.999 6.664 0 11.563-.6 14.697-1.8 3.13-1.2 5.23-3.5 6.299-6.899 1.065-3.4 1.6-8.699 1.6-15.897 0-3.465-.369-5.9-1.1-7.299-.734-1.4-2.269-2.331-4.6-2.8-2.334-.465-6.367-.699-12.097-.699-.8 0-1.2-.531-1.2-1.6 0-.4.1-.765.3-1.1.2-.331.43-.5.7-.5 6.93.534 13.928.8 20.997.8 3.199 0 8.529-.131 15.997-.4.265 0 .5.17.7.5.199.335.3.634.3.9 0 .934-.335 1.4-1 1.4-2.67-.13-4.535.068-5.6.6-1.068.534-1.733 1.634-2 3.298-.268 1.67-.4 4.635-.4 8.899 0 6 .132 10.2.4 12.599.267 2.399.4 4.067.4 4.999 0 .8-.1 1.3-.3 1.5-.2.199-.833.5-1.899.9-8.799 3.73-21.13 5.598-36.994 5.598-10.667 0-19.965-2.234-27.895-6.699zm176.667-88.085c0 .8-.199 1.2-.6 1.2-4.267 0-8.466 1.568-12.597 4.7-4.134 3.133-7.933 7.567-11.398 13.297l-16.397 27.196v29.795c0 4.133.4 7.133 1.2 8.998.8 1.868 2.365 3.134 4.699 3.799 2.33.669 6.098 1 11.298 1 .4 0 .6.4.6 1.2s-.2 1.2-.6 1.2c-4.134 0-7.333-.066-9.598-.201l-13.798-.2-12.998.2c-2.534.135-5.999.201-10.398.201-.4 0-.6-.4-.6-1.2s.2-1.2.6-1.2c5.065 0 8.798-.331 11.198-1 2.4-.665 4.03-1.965 4.9-3.899.864-1.931 1.299-4.9 1.299-8.898V119.68l-22.396-34.194c-3.334-5.2-6.468-8.864-9.399-10.998-2.934-2.132-6.398-3.2-10.398-3.2-.269 0-.4-.4-.4-1.2s.131-1.2.4-1.2l6.4.2c2.93.27 5.129.4 6.598.4 4.13 0 9.263-.13 15.397-.4l9.799-.2c.4 0 .6.4.6 1.2s-.2 1.2-.6 1.2c-2.935 0-5.2.4-6.799 1.2-1.6.8-2.4 1.934-2.4 3.4 0 1.068.6 2.533 1.8 4.399l21.796 33.394 13.998-24.596c2.265-4.13 3.399-7.53 3.399-10.198 0-2.4-.734-4.265-2.2-5.6-1.468-1.33-3.533-1.999-6.199-1.999-.268 0-.399-.4-.399-1.2s.13-1.2.4-1.2l8.398.2c4.265.27 8.33.4 12.198.4 2 0 4.33-.13 7-.4l5.598-.2c.4 0 .6.4.6 1.2z"/></svg>