<svg xmlns="http://www.w3.org/2000/svg" viewBox="0 0 419.1 419.1"><circle cx="209.6" cy="209.6" r="209.6" fill="#d2ac5d"/><path d="M98.7 191.5c3.4 11.1 8.3 21.6 14 31.7 4.6 8.1 9.7 15.8 15.2 23.3 5.7 7.8 11.8 15.2 18.2 22.5 6.8 7.7 13.9 15.2 21.4 22.2 6.5 6 13.2 11.7 20.3 17 11.1 8.1 22.8 15 35.7 19.7 10.4 3.8 21 5.9 32.4 6 5.2 0 10.7-.5 16-1.6 7.6-1.6 14.9-4.3 21.7-8.1 5-2.8 9.6-6.1 13.9-10 2.5-2.3 5-4.5 7.5-6.8 2.3-2.1 4.6-4.1 6.6-6.5 3.8-4.6 4.8-9.8 2.7-15.4-1.5-4.2-4.1-7.7-7.1-10.9-2.7-2.8-5.4-5.5-8.3-8-4.8-4.2-9.6-8.3-14.6-12.3-4.2-3.4-8.8-6.2-13.9-8.2-3.8-1.5-7.8-2.3-11.9-1.9-4.2.4-8 1.8-11.4 4.4-2.8 2.1-5.4 4.4-8 6.7-2 1.7-3.9 3.6-5.8 5.4-1.7 1.7-3.4 3.5-5.2 5.1-3.3 2.7-7.1 4.1-11.4 4.1-4.8 0-9.1-1.6-13.3-3.8-7.1-3.8-13.2-8.9-19-14.4-6.6-6.3-12.7-13-18.5-20-5.7-6.9-11-14-15.3-21.7-2.8-5.1-5.2-10.3-6.3-16.1-.6-3.2-.7-6.5.2-9.7 1.1-4.2 3.7-7.4 7.1-10.1 3.1-2.4 6.5-4.5 9.4-7.2 2.9-2.8 6.1-5.3 8.9-8.3 4.7-5 6.5-11.1 5.8-17.9-.4-4.4-1.8-8.5-3.6-12.5-1.9-4.3-4.3-8.4-6.8-12.4-3.9-6.1-7.6-12.4-12.1-18.2-3.1-3.9-6.4-7.4-10.8-9.9-3.1-1.8-6.5-2.6-10.1-2-4.1.7-7.4 2.9-10.5 5.5-2.7 2.3-5.2 4.8-8 7-4.6 3.5-8.8 7.5-12.5 11.9-4.7 5.6-8.4 11.8-11.2 18.5-3.6 8.5-5.5 17.4-6.2 26.5-.4 5.9-.1 11.9.6 17.8.9 6.2 2.3 12.5 4.2 18.6z" fill="#29235c"/></svg>