<svg version="1.1" id="Слой_1" xmlns="http://www.w3.org/2000/svg" x="0" y="0" viewBox="0 0 419.1 419.1" xml:space="preserve"><style>.st2{display:none}</style><circle cx="209.6" cy="209.6" r="209.6" fill="#d2ac5d"/><path class="st2" d="M319.6 151.4c-1-.3-2.3-.1-3.4-.1H79.5c-1.6 0-3.3.1-4.9.4-2.3.5-3.2 2-2.8 4.4.5 3.8 3.5 5.5 6.4 7.1 35.4 19.3 70.9 38.6 106.4 57.8 9.1 4.9 18.6 4.8 27.7-.1 35.2-19 70.4-38.2 105.6-57.3 1.9-1 4-2.2 5.2-3.9 1.1-1.6 1.7-4.1 1.3-5.9-.5-1.2-3.1-1.9-4.8-2.4z"/><path class="st2" d="M319.6 151.4c-1-.3-2.3-.1-3.4-.1H79.5c-1.6 0-3.3.1-4.9.4-2.3.5-3.2 2-2.8 4.4.5 3.8 3.5 5.5 6.4 7.1 35.4 19.3 70.9 38.6 106.4 57.8 9.1 4.9 18.6 4.8 27.7-.1 35.2-19 70.4-38.2 105.6-57.3 1.9-1 4-2.2 5.2-3.9 1.1-1.6 1.7-4.1 1.3-5.9-.5-1.2-3.1-1.9-4.8-2.4z"/><path d="M124.1 220.7c9.6-8.8 19.1-17.5 28.9-26.5-29.6-19.4-59-38.6-88.6-58-.3 1-.4 1.6-.7 2.3-.2.6-.4 1.2-.7 1.8v136.2c.7-.5 1.3-1.1 2-1.7 19.7-18 39.4-36 59.1-54.1zm120.8-12.6c-5.7 3.6-11.3 7.5-17.1 10.9-10 5.8-20.7 6.8-31.3 2.4-6.2-2.6-11.7-6.6-17.5-10.1-2.6-1.5-5-3.3-7.6-5-33.2 30.4-66.2 60.6-99.1 90.9.4.5.7.8.9 1 7 6.9 15.5 9.9 25.4 9.9h222.1c1.6 0 3.3 0 4.9-.2 8.4-.9 15.4-4.5 21.4-10.7-33.1-30.4-66.1-60.6-99.1-90.9-1.2.7-2.1 1.2-3 1.8zm-24.8-9.2c40-26.3 80.2-52.5 120.3-78.8.8-.5 1.6-1.1 2.5-1.8-6.7-5.2-14-7.4-22.1-7.4H98.3c-8.1 0-15.4 2.1-22.1 7.4 1 .7 1.7 1.2 2.5 1.8 40.1 26.2 80.2 52.4 120.3 78.8 7.1 4.7 13.9 4.7 21.1 0zM355 136c-30.1 19.7-59.5 38.9-89 58.3 30 27.5 59.7 54.7 90 82.5-.3-47.4.8-93.8-1-140.8z" fill="#29235c"/></svg>