<svg version="1.1" id="Слой_1" xmlns="http://www.w3.org/2000/svg" x="0" y="0" viewBox="0 0 441.1 441.1" xml:space="preserve"><style>.st1{fill:#d7a353}</style><circle cx="220.6" cy="220.6" r="202.6" fill="#fbe9d2" stroke="#d6a352" stroke-width="36" stroke-miterlimit="10"/><path class="st1" d="M308.7 301.2c-2.4 6.1-11.7 17.7-18.1 22.6-5.9 4.4-10 6.1-15.5 6.4-4.5.2-6.4-.2-12.1-2.5-45.2-18.6-81.3-46.4-110-84.6-15-19.9-26.4-40.6-34.2-62.1-4.5-12.5-4.8-17.9-1-24.3 1.6-2.7 8.5-9.4 13.5-13.1 8.3-6.2 12.1-8.5 15.2-9.1 2.1-.5 5.7-.1 8.1.7 1.1.4 2.9 1.3 3.9 1.9 6.1 4.1 23.2 25.8 28.7 36.7 3.2 6.2 4.3 10.8 3.3 14.2-1 3.7-2.7 5.6-10.4 11.7-3.1 2.5-5.9 5-6.4 5.7-1.2 1.7-2.1 4.9-2.1 7.3 0 5.4 3.5 15.1 8.1 22.6 3.5 5.8 9.9 13.3 16.2 19 7.4 6.7 13.9 11.3 21.2 15 9.4 4.7 15.2 5.9 19.4 3.9 1.1-.5 2.2-1.1 2.5-1.4.3-.3 2.8-3.3 5.5-6.7 5.2-6.6 6.4-7.6 10-8.8 4.5-1.5 9.2-1.1 13.8 1.3 3.5 1.8 11.3 6.6 16.3 10.1 6.6 4.6 20.6 16 22.5 18.3 3.2 4.1 3.8 9.3 1.6 15.2z"/><path class="st1" d="M307 285.9c-1.9-2.3-15.9-13.7-22.5-18.3-5-3.5-12.7-8.3-16.3-10.1-4.7-2.4-9.3-2.8-13.8-1.3-3.6 1.2-4.8 2.3-10 8.8-2.7 3.3-5.2 6.4-5.5 6.7-.4.3-1.5.9-2.5 1.4-4.2 2-10 .8-19.4-3.9-7.3-3.6-13.8-8.2-21.2-15-6.3-5.7-12.6-13.2-16.2-19-4.6-7.5-8.1-17.2-8.1-22.6 0-2.3.9-5.6 2.1-7.3.2-.3.8-.9 1.6-1.6-11.4 6.8-25 10.8-39.7 10.8h-1.1c5.4 9.7 11.6 19.1 18.6 28.5 28.7 38.2 64.8 66 110 84.6 5.8 2.4 7.6 2.8 12.1 2.5 5.5-.3 9.6-2 15.5-6.4 6.5-4.9 15.7-16.4 18.1-22.6 2.2-5.8 1.6-11-1.7-15.2zm-95.7-153.5c1.5-1.4 2.6-1.6 7.8-1.4 2.7.1 6.8.4 9 .7 11.1 1.4 20 4.1 29.9 8.8 9.7 4.7 15.8 9.2 24 17.3 7.7 7.7 11.9 13.5 16.4 22.5 6.3 12.6 9.9 27.6 10.5 44.1.2 5.6.1 6.9-1.2 8.5-2.5 3.1-7.8 2.6-9.7-.9-.6-1.2-.7-2.2-.9-6.7-.3-6.9-.8-11.4-1.8-16.7-3.8-20.9-13.9-37.7-29.9-49.7-13.4-10-27.2-14.9-45.3-16-6.1-.4-7.2-.6-8.6-1.6-2.6-1.9-2.7-6.7-.2-8.9z"/><path class="st1" d="M249.7 173.8c-6.5-3.9-16-6.7-24.8-7.4-3.2-.3-4.9-.9-6.1-2.3-1.8-2.1-2-4.9-.5-7.3 1.7-2.6 4.2-3 11.9-1.9 19.5 2.9 34.7 11.9 44.6 26.7 5.6 8.3 9 18 10.2 28.5.4 3.8.4 10.8 0 12-.4 1.1-1.8 2.6-2.9 3.2-1.3.6-3.9.6-5.4-.2-2.5-1.3-3.2-3.2-3.2-8.6 0-8.3-2.2-17.1-5.9-23.9-4.2-7.9-10.4-14.3-17.9-18.8z"/><path class="st1" d="M260.5 216.7c-1.9 1.7-5.4 1.8-7.5.2-1.5-1.2-2-2.4-2.4-5.7-.4-4.4-1.2-7.5-2.5-10.4-2.8-6.1-7.8-9.2-16.3-10.3-4-.5-5.2-.9-6.4-2.4-2.3-2.8-1.4-7.3 1.8-9 1.2-.6 1.7-.7 4.4-.5 1.7.1 4.2.4 5.5.7 6.3 1.4 11.2 3.8 15.4 7.7 5.3 5.1 8.3 11.2 9.6 19.9.8 5.7.5 7.9-1.6 9.8zm46.5 69.2c-1.9-2.3-15.9-13.7-22.5-18.3-5-3.5-12.7-8.3-16.3-10.1-4.7-2.4-9.3-2.8-13.8-1.3-3.6 1.2-4.8 2.3-10 8.8-2.7 3.3-5.2 6.4-5.5 6.7-.3.3-1.4.9-2.4 1.3-8 9.6-17.4 18-27.9 24.6 16.5 11.8 34.5 21.7 54.4 29.9 5.8 2.4 7.6 2.8 12.1 2.5 5.5-.3 9.6-2 15.5-6.4 6.5-4.9 15.7-16.4 18.1-22.6 2.2-5.7 1.6-10.9-1.7-15.1z"/></svg>