<svg xmlns="http://www.w3.org/2000/svg" viewBox="0 0 441.1 441.1"><circle cx="220.6" cy="220.6" r="202.6" fill="#fbe9d2" stroke="#d6a352" stroke-width="36" stroke-miterlimit="10"/><path d="M345.5 204.5c-6.4-44.9-30.5-76.3-71.9-94.4-19.1-8.4-39.2-11.7-60-10.4-33 2-61.6 14.4-85.2 37.6-18 17.7-28.8 39.2-32.6 64.2-4.4 29.5.1 57.4 15.9 83 17.1 27.7 42.2 44.6 73.5 52.7 7.9 2 16.2 2.8 24.3 4.2.4.1.7.3 1.1.4h20.7c5.1-.8 10.3-1.4 15.3-2.5 4.5-1.1 9-2.5 13.3-4.4 4.7-2.1 7.9-5.9 8.9-11.1 2-10.5-7.1-17.8-17.5-14.3-4.9 1.6-9.8 3.4-14.9 4.3-38.9 7.1-86.5-10.8-104.8-50.8-17.1-37.3-11.2-72.2 14.1-103.9 13.6-17.1 32.2-26.3 53.5-30.1 33.4-5.9 63.6 1.4 89.9 23.1 16.4 13.5 25.8 31.1 28.8 52.1 3 21.3 0 41.8-9.1 61.3-1.9 4-4.5 7.6-7.1 11.2-2 2.8-4.6 3.4-7.4 2.3-2.6-1-4.1-3.4-4.1-6.6v-97.8c0-1.2 0-2.5-.2-3.7-1.1-6.6-5.2-10.3-11.7-10.3-6.5-.1-10.1 3.2-11.5 10.8-18.8-17.3-40.5-25.4-65.9-19.6-17.5 4-31.5 14-42.1 28.4-21.5 29.2-18.5 66.4 7.2 92.4 25.7 26.1 69.7 30.7 100.4 1.1.1 2.6.3 5 .3 7.5.2 12.9 11 23.7 23.9 26.1 9.2 1.7 17.4-.5 24.6-6.5 14.1-11.8 22.6-27.1 27.1-44.6 2.1-8.1 2.8-16.6 4.2-25 .1-.8.3-1.6.4-2.4v-11.9c-.5-4.3-.8-8.4-1.4-12.4zm-121.8 65.3c-27.1 4.1-49.4-12.2-52.3-40.2-1-10 .2-19.7 4.3-28.9 8.3-18.7 25-27 44.2-25.8 11.3.7 21.4 4.4 29.8 12.2 10.2 9.5 14.3 21.6 14.4 29.7 0 30.2-15.9 49.3-40.4 53z" fill="#d7a353"/></svg>