<svg xmlns="http://www.w3.org/2000/svg" version="1.0" width="64" height="64" viewBox="0 0 128 128"><g><path fill="#fff" d="M70.48 35.8l-6.16-6.24-6.16 6.26L64.32.88z"/><path fill="#fff" fill-opacity=".1" d="M83.712 42.818l-2.215-8.484-8.465 2.341L95.837 9.496zm7.95 12.694l2.324-8.455-8.501-2.205 33.339-12.135zM92.2 70.48l6.24-6.16-6.26-6.16 34.94 6.16zm-7.018 13.232l8.484-2.215-2.341-8.465 27.179 22.805zm-12.694 7.95l8.455 2.324 2.205-8.501 12.135 33.339zM57.52 92.2l6.16 6.24 6.16-6.26-6.16 34.94zm-13.232-7.018l2.215 8.484 8.465-2.341-22.805 27.179z"/><path fill="#fff" fill-opacity=".2" d="M36.338 72.488l-2.324 8.455 8.501 2.205L9.176 95.283z"/><path fill="#fff" fill-opacity=".4" d="M35.8 57.52l-6.24 6.16 6.26 6.16L.88 63.68z"/><path fill="#fff" fill-opacity=".6" d="M42.818 44.288l-8.484 2.215 2.341 8.465L9.496 32.163z"/><path fill="#fff" fill-opacity=".8" d="M55.512 36.338l-8.455-2.324-2.205 8.501L32.717 9.176z"/><animateTransform attributeName="transform" type="rotate" values="0 64 64;30 64 64;60 64 64;90 64 64;120 64 64;150 64 64;180 64 64;210 64 64;240 64 64;270 64 64;300 64 64;330 64 64" calcMode="discrete" dur="1080ms" repeatCount="indefinite"/></g></svg>