<svg xmlns="http://www.w3.org/2000/svg" viewBox="0 0 208.556 70.225"><path fill="#D1B264" d="M10.674 35.112C10.674 17.535 23.59 2.974 40.45.403A35.387 35.387 0 0 0 35.112 0C15.72 0 0 15.72 0 35.112s15.72 35.113 35.112 35.113c1.815 0 3.597-.138 5.337-.404-16.859-2.57-29.775-17.131-29.775-34.709z"/><path fill="#D1B264" d="M37.5 7.556c-1.78 0-3.52.175-5.206.498 12.729 2.435 22.35 13.62 22.35 27.058 0 13.439-9.621 24.624-22.35 27.059a27.73 27.73 0 0 0 5.206.498c15.219 0 27.556-12.338 27.556-27.557S52.719 7.556 37.5 7.556z"/><path fill="#D1B264" d="M46.701 61.35s23.987-16.41 59.9-5.023c0 0-17.312-17.686-45.019-10.297l-14.88 15.32zm54.452-14.068c-1.328-.72-2.272-1.824-2.832-3.312s-.84-3.463-.84-5.928V16.946L85.865 43.202h-1.103l-12.624-26.88v24.88h-2.016v-29.68h4.895l11.52 24.575 10.944-24.576h4.8v26.521c0 6.08 1.44 9.184 4.32 9.312v1.008c-2.303 0-4.12-.36-5.448-1.08zm11.937-26.82c0-2.142.7-3.933 2.101-5.376 1.4-1.442 3.157-2.163 5.27-2.163 2.101 0 3.854.711 5.262 2.132s2.11 3.223 2.11 5.407c0 2.157-.703 3.952-2.11 5.387s-3.16 2.152-5.261 2.152c-2.1 0-3.854-.71-5.26-2.13-1.408-1.422-2.111-3.225-2.111-5.409zm1.219 0c0 1.835.591 3.368 1.775 4.6 1.183 1.231 2.641 1.848 4.378 1.848 1.778 0 3.248-.617 4.41-1.849s1.743-2.764 1.743-4.599c0-1.848-.592-3.384-1.774-4.609-1.184-1.225-2.643-1.837-4.38-1.837-1.75 0-3.212.612-4.388 1.837s-1.764 2.761-1.764 4.61zm16.317 7.35v-9.45h1.092v9.45h-1.092zm7.707-9.45l-4.662 4.515 5.04 4.935h-1.47l-4.893-4.872 4.578-4.578h1.407zm9.345 7.308l.546.798c-.392.49-.907.869-1.543 1.134a5.215 5.215 0 0 1-2.027.4c-1.47 0-2.67-.448-3.601-1.344-.932-.896-1.397-2.086-1.397-3.57 0-1.386.447-2.552 1.344-3.497.895-.945 2.016-1.418 3.36-1.418 1.623 0 2.849.392 3.675 1.177l-.525.881c-.756-.685-1.75-1.028-2.982-1.028-1.022 0-1.897.37-2.625 1.112-.728.743-1.093 1.667-1.093 2.772 0 1.177.372 2.118 1.114 2.825s1.68 1.06 2.814 1.06c1.218 0 2.197-.433 2.94-1.302zm3.234-5.733l-.294-.902a5.583 5.583 0 0 1 3.003-.862c1.26 0 2.16.315 2.698.946.54.63.809 1.574.809 2.835v5.858h-1.092v-1.449c-.77 1.05-1.849 1.575-3.234 1.575-.882 0-1.59-.255-2.121-.766-.533-.51-.798-1.194-.798-2.048 0-.923.336-1.645 1.008-2.163.671-.517 1.533-.776 2.583-.776 1.05 0 1.904.238 2.562.713 0-.531-.01-.951-.031-1.26a5.66 5.66 0 0 0-.168-.997c-.092-.357-.22-.626-.389-.809-.168-.181-.41-.332-.724-.451-.316-.119-.705-.178-1.166-.178-.869 0-1.75.245-2.646.734zm2.226 6.973c1.176 0 2.142-.497 2.898-1.492v-1.575c-.686-.504-1.505-.756-2.457-.756-.687 0-1.281.168-1.785.504-.504.337-.756.826-.756 1.47 0 .575.2 1.026.599 1.355.398.33.899.494 1.5.494zm14.342.902v-4.284h-6.131v4.284h-1.092v-9.45h1.092V22.5h6.131v-4.137h1.092v9.45h-1.092zm4.704-7.875l-.293-.902a5.583 5.583 0 0 1 3.002-.862c1.26 0 2.16.315 2.699.946.539.63.808 1.574.808 2.835v5.858h-1.091v-1.449c-.771 1.05-1.85 1.575-3.235 1.575-.882 0-1.589-.255-2.121-.766-.532-.51-.798-1.194-.798-2.048 0-.923.336-1.645 1.008-2.163.672-.517 1.533-.776 2.583-.776 1.05 0 1.904.238 2.563.713 0-.531-.011-.951-.032-1.26a5.66 5.66 0 0 0-.168-.997c-.092-.357-.22-.626-.388-.809-.168-.181-.41-.332-.725-.451s-.704-.178-1.166-.178c-.868 0-1.75.245-2.646.734zm2.226 6.973c1.177 0 2.143-.497 2.899-1.492v-1.575c-.687-.504-1.505-.756-2.458-.756-.686 0-1.28.168-1.785.504-.504.337-.756.826-.756 1.47 0 .575.2 1.026.6 1.355.398.33.899.494 1.5.494zm-60.122 17.902v-14.7h1.176l5.922 8.064 5.691-8.064h1.113v14.7h-1.155V31.918l-5.65 7.938h-.188l-5.754-7.875v12.831h-1.155zm21.776-9.45h2.815v9.45h-1.093v-3.528h-2.352l-2.709 3.528h-1.343l2.981-3.78c-.601-.097-1.13-.388-1.585-.87-.455-.484-.682-1.09-.682-1.817 0-.868.314-1.582.944-2.143.63-.56 1.639-.84 3.024-.84zm-2.813 3.003c0 .56.217 1.016.65 1.365s.896.525 1.386.525h2.499v-3.863h-1.91c-.897 0-1.558.181-1.985.545-.427.365-.64.84-.64 1.428zm8.945 6.447v-9.45h1.092v9.45h-1.092zm7.707-9.45l-4.662 4.515 5.04 4.935h-1.47l-4.893-4.872 4.578-4.578h1.407zm2.709 8.253c-.924-.924-1.386-2.1-1.386-3.528s.462-2.604 1.386-3.527 2.113-1.387 3.57-1.387c1.456 0 2.646.463 3.57 1.387s1.387 2.1 1.387 3.527c0 1.429-.463 2.604-1.387 3.528s-2.114 1.387-3.57 1.387c-1.457 0-2.646-.463-3.57-1.387zm.85-6.321c-.72.728-1.081 1.66-1.081 2.793 0 1.135.357 2.065 1.071 2.794.714.727 1.624 1.092 2.73 1.092 1.12 0 2.034-.36 2.74-1.082.708-.721 1.061-1.656 1.061-2.804 0-1.134-.357-2.065-1.071-2.793-.714-.728-1.624-1.092-2.73-1.092-1.092 0-1.998.364-2.72 1.092zm10.344 7.518v-9.45h1.091v8.421h4.095v-8.42h1.093v8.42h4.095v-8.42h1.091v9.45h-11.465zm15.896 0h-1.092v-9.45h1.092v7.875l6.3-7.875h1.092v9.45h-1.092v-7.875l-6.3 7.875zm17.934 0v-4.284h-6.132v4.284h-1.092v-9.45h1.092V39.5h6.132v-4.137h1.091v9.45h-1.091zm4.704-7.875l-.294-.903a5.583 5.583 0 0 1 3.003-.861c1.26 0 2.159.315 2.698.945s.809 1.575.809 2.835v5.86h-1.092v-1.45c-.77 1.05-1.849 1.575-3.235 1.575-.881 0-1.588-.254-2.12-.766-.533-.51-.799-1.194-.799-2.048 0-.924.336-1.645 1.008-2.163.672-.518 1.533-.776 2.583-.776 1.051 0 1.905.238 2.563.713a20.4 20.4 0 0 0-.031-1.26 5.665 5.665 0 0 0-.168-.997c-.092-.357-.221-.626-.39-.809-.167-.182-.41-.332-.724-.451-.315-.12-.704-.179-1.166-.179-.868 0-1.75.245-2.645.735zm2.225 6.972c1.177 0 2.143-.496 2.899-1.49v-1.576c-.687-.504-1.505-.756-2.457-.756-.687 0-1.282.168-1.785.504-.504.337-.756.826-.756 1.47 0 .575.199 1.026.598 1.355.399.33.9.493 1.501.493z"/></svg>