<svg xmlns="http://www.w3.org/2000/svg" viewBox="0 0 218.665 70.225"><path d="M113.078 20.8c0-2.142.7-3.933 2.1-5.376 1.4-1.442 3.157-2.163 5.271-2.163 2.1 0 3.854.711 5.261 2.132s2.11 3.223 2.11 5.407c0 2.157-.703 3.952-2.11 5.387s-3.16 2.152-5.26 2.152c-2.1 0-3.854-.71-5.261-2.131-1.407-1.42-2.11-3.224-2.11-5.408zm1.218 0c0 1.835.592 3.368 1.775 4.6 1.183 1.231 2.642 1.848 4.378 1.848 1.779 0 3.248-.617 4.41-1.849s1.744-2.764 1.744-4.599c0-1.848-.592-3.384-1.775-4.61-1.183-1.224-2.642-1.836-4.379-1.836-1.75 0-3.213.612-4.388 1.837s-1.765 2.761-1.765 4.61zm16.317 7.35v-14.7h1.092v14.7h-1.092zm7.455-9.45l-4.41 4.431 4.809 5.02h-1.47l-4.682-4.936 4.325-4.515h1.428zm7.371 6.972a1.25 1.25 0 0 0-.536-1.05 4.187 4.187 0 0 0-1.301-.63c-.512-.154-1.027-.325-1.544-.514s-.955-.486-1.313-.893c-.356-.405-.535-.93-.535-1.575 0-.756.28-1.361.84-1.816.56-.455 1.295-.683 2.205-.683 1.302 0 2.289.35 2.96 1.05l-.461.82c-.645-.602-1.47-.903-2.479-.903-.574 0-1.036.147-1.385.44s-.526.651-.526 1.071c0 .462.179.833.536 1.114.357.28.791.5 1.302.66.511.162 1.026.334 1.544.515.518.182.955.466 1.313.85.356.386.535.887.535 1.502 0 .882-.325 1.555-.977 2.017s-1.459.692-2.426.692c-.643 0-1.288-.14-1.931-.42-.645-.28-1.078-.594-1.302-.944l.608-.715c.252.323.652.589 1.198.799s1.063.315 1.553.315c.588 0 1.09-.147 1.502-.441.413-.295.62-.715.62-1.26zm4.179-5.397l-.294-.902a5.583 5.583 0 0 1 3.003-.862c1.26 0 2.16.315 2.698.946.54.63.81 1.574.81 2.835v5.858h-1.093v-1.449c-.77 1.05-1.848 1.575-3.234 1.575-.882 0-1.589-.255-2.121-.766-.532-.51-.798-1.194-.798-2.048 0-.923.336-1.645 1.008-2.163.672-.517 1.533-.777 2.583-.777 1.05 0 1.904.239 2.562.714 0-.531-.01-.951-.031-1.26a5.66 5.66 0 0 0-.168-.997c-.092-.357-.22-.626-.389-.809-.168-.181-.41-.332-.724-.451-.316-.119-.704-.178-1.166-.178-.868 0-1.75.245-2.646.734zm2.226 6.973c1.177 0 2.142-.497 2.898-1.492v-1.575c-.686-.504-1.505-.756-2.457-.756-.686 0-1.281.168-1.785.504-.504.337-.756.826-.756 1.47 0 .575.2 1.026.599 1.355.398.329.9.494 1.5.494zm7.119.902V18.7h1.092v1.323c.378-.42.878-.773 1.502-1.06a4.501 4.501 0 0 1 1.9-.43c1.302 0 2.285.34 2.95 1.018.665.679.997 1.746.997 3.202v5.397h-1.091v-5.187c0-2.268-1.037-3.401-3.108-3.401-.616 0-1.212.14-1.785.42-.574.28-1.03.623-1.365 1.028v7.14h-1.092zm11.865-7.875l-.294-.902a5.583 5.583 0 0 1 3.003-.862c1.26 0 2.16.315 2.698.946.54.63.809 1.574.809 2.835v5.858h-1.092v-1.449c-.77 1.05-1.848 1.575-3.234 1.575-.882 0-1.589-.255-2.121-.766-.532-.51-.798-1.194-.798-2.048 0-.923.336-1.645 1.008-2.163.672-.517 1.533-.777 2.583-.777 1.05 0 1.904.239 2.562.714 0-.531-.01-.951-.031-1.26a5.66 5.66 0 0 0-.168-.997c-.092-.357-.22-.626-.389-.809-.168-.181-.41-.332-.724-.451-.316-.119-.704-.178-1.166-.178-.868 0-1.75.245-2.646.734zm2.226 6.973c1.177 0 2.142-.497 2.898-1.492v-1.575c-.686-.504-1.505-.756-2.457-.756-.686 0-1.281.168-1.785.504-.504.337-.756.826-.756 1.47 0 .575.2 1.026.599 1.355.398.329.9.494 1.5.494zM114.275 45.15v-14.7h1.176l5.922 8.064 5.692-8.064h1.113v14.7h-1.155V32.256l-5.65 7.938h-.188l-5.754-7.875V45.15h-1.156zm26.04-9.45l-3.822 9.45c-.672 1.639-1.263 2.747-1.774 3.329-.512.58-1.103.871-1.776.871-.532 0-1.07-.16-1.616-.482l.357-.84c.448.209.819.314 1.113.314.476 0 .903-.207 1.281-.619.378-.414.77-1.102 1.176-2.069l.21-.504-4.662-9.45h1.302l3.234 6.678.672 1.47a33.3 33.3 0 0 1 .525-1.512l2.541-6.636h1.239zm2.247 1.575l-.294-.902a5.583 5.583 0 0 1 3.003-.862c1.26 0 2.159.315 2.698.946.539.63.808 1.574.808 2.835v5.858h-1.091v-1.449c-.77 1.05-1.849 1.575-3.235 1.575-.882 0-1.589-.255-2.12-.766-.533-.51-.799-1.194-.799-2.048 0-.923.336-1.645 1.008-2.163.672-.517 1.533-.777 2.583-.777 1.05 0 1.904.239 2.563.714 0-.531-.011-.951-.032-1.26a5.66 5.66 0 0 0-.168-.997c-.091-.357-.22-.626-.388-.809-.168-.181-.41-.332-.725-.451s-.704-.178-1.166-.178c-.868 0-1.75.245-2.645.734zm2.225 6.973c1.177 0 2.143-.497 2.899-1.492v-1.575c-.687-.504-1.505-.756-2.457-.756-.687 0-1.282.168-1.786.504-.503.337-.755.826-.755 1.47 0 .575.199 1.026.598 1.355.399.329.9.494 1.501.494zm7.12.902v-14.7H153v14.7h-1.092zm7.455-9.45l-4.41 4.431 4.809 5.02h-1.47l-4.683-4.936 4.326-4.515h1.428zm2.73 8.254c-.924-.925-1.386-2.1-1.386-3.529 0-1.427.462-2.604 1.386-3.528s2.113-1.386 3.57-1.386c1.455 0 2.646.463 3.57 1.386s1.386 2.1 1.386 3.528c0 1.429-.463 2.604-1.386 3.529-.924.923-2.115 1.385-3.57 1.385-1.457 0-2.646-.462-3.57-1.385zm.85-6.322c-.721.728-1.082 1.66-1.082 2.793 0 1.135.358 2.066 1.072 2.793.714.728 1.624 1.093 2.73 1.093 1.12 0 2.033-.36 2.74-1.082s1.061-1.655 1.061-2.804c0-1.133-.357-2.065-1.071-2.793-.714-.727-1.624-1.091-2.73-1.091-1.093 0-1.999.364-2.72 1.091zm15.236 5.04a1.25 1.25 0 0 0-.535-1.05 4.187 4.187 0 0 0-1.302-.63c-.512-.154-1.026-.325-1.544-.514s-.955-.486-1.313-.893c-.356-.405-.535-.93-.535-1.575 0-.756.28-1.361.84-1.816.56-.455 1.295-.683 2.205-.683 1.302 0 2.29.35 2.961 1.05l-.462.82c-.644-.602-1.47-.903-2.478-.903-.574 0-1.036.147-1.386.44s-.525.651-.525 1.071c0 .462.178.833.536 1.114.356.28.79.5 1.301.66.511.162 1.026.334 1.544.515a3.22 3.22 0 0 1 1.313.85c.356.386.535.887.535 1.502 0 .882-.325 1.555-.976 2.017s-1.46.692-2.426.692c-.644 0-1.288-.14-1.932-.42-.644-.28-1.078-.594-1.302-.944l.609-.715c.252.323.651.589 1.197.799s1.063.315 1.554.315c.588 0 1.089-.147 1.502-.441.413-.295.619-.715.619-1.26zm3.885 2.478v-14.7h1.091v6.531c.378-.42.878-.766 1.502-1.04a4.69 4.69 0 0 1 1.9-.409c2.633 0 3.948 1.415 3.948 4.242v5.376h-1.092v-5.208c0-2.253-1.036-3.38-3.107-3.38-.616 0-1.215.14-1.796.42-.581.28-1.032.623-1.355 1.028v7.14h-1.091zm11.907-13.125a.62.62 0 0 1 .23-.503.837.837 0 0 1 .547-.19c.182 0 .346.067.493.2a.64.64 0 0 1 .221.493c0 .239-.07.428-.21.567a.689.689 0 0 1-.504.21.773.773 0 0 1-.556-.21c-.148-.14-.221-.328-.221-.567zm.188 13.125V35.7h1.093v9.45h-1.093zm4.956 0V35.7h1.092v1.323c.378-.42.878-.773 1.502-1.06a4.501 4.501 0 0 1 1.9-.43c1.302 0 2.286.34 2.95 1.018.666.679.998 1.746.998 3.202v5.397h-1.092v-5.187c0-2.268-1.036-3.401-3.107-3.401-.617 0-1.212.14-1.786.42-.574.28-1.029.623-1.365 1.028v7.14h-1.092zm11.866-7.875l-.294-.902a5.583 5.583 0 0 1 3.003-.862c1.26 0 2.159.315 2.698.946.539.63.808 1.574.808 2.835v5.858h-1.091v-1.449c-.77 1.05-1.849 1.575-3.235 1.575-.882 0-1.589-.255-2.12-.766-.533-.51-.799-1.194-.799-2.048 0-.923.336-1.645 1.008-2.163.672-.517 1.533-.777 2.583-.777 1.05 0 1.904.239 2.563.714 0-.531-.011-.951-.032-1.26a5.66 5.66 0 0 0-.168-.997c-.091-.357-.22-.626-.388-.809-.168-.181-.41-.332-.725-.451s-.704-.178-1.166-.178c-.868 0-1.75.245-2.645.734zm2.225 6.973c1.177 0 2.143-.497 2.899-1.492v-1.575c-.687-.504-1.505-.756-2.457-.756-.687 0-1.282.168-1.786.504-.504.337-.755.826-.755 1.47 0 .575.199 1.026.598 1.355.399.329.9.494 1.501.494zm-112.052 3.034c-1.328-.72-2.272-1.824-2.832-3.312s-.84-3.463-.84-5.928V16.946L85.865 43.202h-1.103l-12.624-26.88v24.88h-2.016v-29.68h4.895l11.52 24.575 10.944-24.576h4.8v26.521c0 6.08 1.44 9.184 4.32 9.312v1.008c-2.303 0-4.12-.36-5.448-1.08zm-90.479-12.17C10.674 17.535 23.59 2.974 40.45.403A35.387 35.387 0 0 0 35.112 0C15.72 0 0 15.72 0 35.112s15.72 35.113 35.112 35.113c1.815 0 3.597-.138 5.337-.404-16.859-2.57-29.775-17.131-29.775-34.709z" fill="#D7B65C"/><path fill="#D7B65C" d="M37.5 7.556c-1.78 0-3.52.175-5.206.498 12.729 2.435 22.35 13.62 22.35 27.058 0 13.439-9.621 24.624-22.35 27.059a27.73 27.73 0 0 0 5.206.498c15.219 0 27.556-12.338 27.556-27.557S52.72 7.556 37.5 7.556z"/><path fill="#D7B65C" d="M46.701 61.35s23.987-16.41 59.9-5.023c0 0-17.312-17.686-45.019-10.297l-14.88 15.32z"/></svg>