<svg xmlns="http://www.w3.org/2000/svg" viewBox="0 0 90 90" fill="#fff"><path d="M90 43.8C90 68 70.2 87.6 45.8 87.6c-7.7 0-15-2-21.4-5.5L0 90l8-23.5c-4-6.6-6.3-14.4-6.3-22.6C1.6 19.6 21.4 0 45.8 0 70.2 0 90 19.6 90 43.8zM45.8 7C25.3 7 8.7 23.5 8.7 43.8c0 8.1 2.6 15.5 7.1 21.6l-4.6 13.7 14.3-4.5c5.9 3.9 12.9 6.1 20.4 6.1C66.3 80.7 83 64.2 83 43.8S66.3 7 45.8 7zm22.3 46.9c-.3-.4-1-.7-2.1-1.3-1.1-.5-6.4-3.1-7.4-3.5-1-.4-1.7-.5-2.4.5-.7 1.1-2.8 3.5-3.4 4.2-.6.7-1.3.8-2.3.3-1.1-.5-4.6-1.7-8.7-5.3-3.2-2.8-5.4-6.4-6-7.4-.6-1.1-.1-1.7.5-2.2.5-.5 1.1-1.3 1.6-1.9.5-.6.7-1.1 1.1-1.8.4-.7.2-1.3-.1-1.9-.3-.5-2.4-5.8-3.3-8-.9-2.1-1.8-1.8-2.4-1.8-.6 0-1.4-.1-2.1-.1s-1.9.3-2.9 1.3c-1 1.1-3.8 3.7-3.8 9s3.9 10.4 4.4 11.1c.5.7 7.5 11.9 18.5 16.2 11 4.3 11 2.9 13 2.7 2-.2 6.4-2.6 7.3-5.1.8-2.4.8-4.5.5-5z"/></svg>