<?xml version="1.0" standalone="no"?>
<!DOCTYPE svg PUBLIC "-//W3C//DTD SVG 20010904//EN"
 "http://www.w3.org/TR/2001/REC-SVG-20010904/DTD/svg10.dtd">
<svg version="1.0" xmlns="http://www.w3.org/2000/svg"
 width="856.000000pt" height="856.000000pt" viewBox="0 0 856.000000 856.000000"
 preserveAspectRatio="xMidYMid meet">
<metadata>
Created by potrace 1.11, written by Peter Selinger 2001-2013
</metadata>
<g transform="translate(0.000000,856.000000) scale(0.100000,-0.100000)"
fill="#000000" stroke="none">
<path d="M2561 7089 c-35 -5 -68 -6 -73 -3 -4 3 -8 0 -8 -6 0 -6 -4 -9 -8 -6
-7 4 -87 -6 -212 -29 -111 -20 -384 -101 -475 -141 -22 -10 -46 -19 -52 -20
-31 -6 -308 -150 -403 -209 -95 -61 -261 -178 -301 -215 -9 -8 -49 -44 -89
-80 -123 -110 -214 -205 -315 -330 -20 -25 -44 -54 -53 -65 -69 -85 -183 -268
-267 -430 -73 -142 -177 -406 -200 -505 -1 -8 -8 -35 -15 -60 -7 -25 -14 -53
-16 -63 -2 -10 -5 -26 -8 -35 -3 -9 -8 -35 -11 -57 -10 -60 -13 -77 -20 -110
-4 -16 -8 -43 -10 -60 -2 -16 -7 -64 -11 -105 -10 -86 -10 -490 -1 -565 4 -27
9 -72 12 -100 4 -27 8 -58 11 -68 3 -10 8 -32 10 -50 3 -18 7 -41 9 -52 2 -11
7 -35 9 -52 12 -72 87 -312 140 -448 44 -111 147 -315 202 -403 19 -29 34 -56
34 -61 0 -5 3 -11 8 -13 4 -1 20 -23 37 -48 31 -47 106 -152 115 -160 3 -3 25
-30 50 -60 80 -99 204 -225 330 -337 99 -87 327 -253 349 -253 5 0 11 -4 13
-8 3 -8 83 -55 198 -114 45 -24 149 -71 285 -128 32 -13 110 -42 112 -41 2 0
8 -1 15 -4 25 -8 133 -38 138 -38 3 0 25 -6 50 -13 42 -12 75 -20 125 -29 100
-19 145 -27 175 -30 19 -2 58 -7 85 -10 87 -12 477 -14 550 -3 39 5 84 9 100
9 54 0 60 16 8 23 -26 4 -55 9 -63 11 -8 2 -49 11 -90 20 -41 9 -82 19 -90 22
-8 3 -24 8 -35 10 -21 4 -188 59 -220 73 -11 4 -36 14 -55 21 -67 25 -245 111
-335 162 -343 194 -646 460 -868 760 -37 51 -72 97 -77 103 -13 18 -95 147
-103 164 -4 8 -17 31 -28 50 -23 38 -119 226 -119 233 0 2 -10 26 -22 53 -12
27 -22 51 -23 54 0 3 -3 10 -6 15 -13 20 -99 295 -115 367 -2 10 -6 28 -9 41
-26 114 -50 280 -60 408 -14 166 -3 471 20 609 2 14 9 52 14 85 13 77 35 174
55 250 9 33 19 67 21 75 7 28 57 175 70 205 69 164 117 266 174 370 19 33 40
67 47 76 8 8 14 19 14 23 0 10 140 211 185 265 177 212 329 362 493 486 7 6
18 15 25 21 7 5 44 31 82 57 39 26 75 51 80 55 19 15 204 122 211 122 4 0 15
7 25 16 9 8 23 17 31 18 7 2 47 19 88 38 123 58 359 145 441 162 13 3 51 12
84 20 33 8 78 17 100 21 22 4 47 8 55 10 8 2 24 4 34 4 41 2 11 10 -99 28 -55
8 -489 10 -554 2z"/>
<path d="M2957 6494 c-1 -1 -45 -5 -97 -8 -52 -3 -113 -9 -135 -12 -44 -7 -83
-12 -104 -13 -16 -1 -9 -11 11 -15 69 -14 141 -35 258 -74 436 -145 823 -435
1095 -820 105 -150 191 -313 275 -527 35 -88 88 -304 105 -425 26 -179 26
-494 0 -640 -2 -14 -6 -38 -9 -54 -3 -16 -11 -55 -17 -85 -6 -31 -12 -60 -14
-66 -25 -121 -163 -482 -193 -505 -4 -3 -8 -12 -10 -20 -2 -8 -11 -23 -19 -32
-9 -10 -13 -18 -9 -18 10 0 -122 -193 -194 -285 -77 -98 -253 -273 -340 -340
-36 -27 -67 -52 -70 -55 -3 -3 -25 -19 -50 -35 -25 -16 -47 -33 -50 -36 -3 -3
-12 -9 -20 -12 -8 -4 -31 -17 -50 -29 -112 -69 -384 -198 -418 -198 -6 0 -23
-5 -39 -12 -15 -6 -32 -12 -38 -13 -5 -2 -35 -10 -65 -19 -30 -8 -71 -18 -90
-21 -54 -9 -58 -23 -9 -30 24 -3 60 -8 79 -11 142 -20 451 -20 560 1 14 2 45
7 70 10 25 3 53 8 62 11 17 5 47 12 88 20 54 11 181 49 234 70 11 4 17 4 13
-2 -6 -10 328 154 388 191 50 31 108 58 205 96 41 16 84 34 95 39 24 12 214
80 235 85 8 2 51 15 95 30 68 22 193 58 245 70 8 2 69 17 135 34 66 16 134 32
150 35 124 24 256 47 285 52 19 2 46 7 60 9 14 3 45 7 70 10 25 3 61 7 80 10
115 14 141 16 195 21 305 25 854 25 1070 0 17 -2 64 -7 105 -11 41 -3 89 -8
105 -10 17 -2 50 -7 74 -10 23 -3 55 -7 70 -9 14 -3 46 -7 71 -11 76 -11 99
-15 133 -21 17 -3 41 -8 52 -10 109 -18 426 -88 519 -115 21 -6 46 -12 55 -14
9 -2 63 -18 121 -35 58 -17 112 -33 120 -35 8 -2 24 -6 35 -10 33 -11 -79 90
-210 191 -286 219 -649 415 -1020 549 -174 63 -472 144 -590 160 -16 3 -41 7
-55 10 -32 6 -72 12 -132 19 -27 3 -67 8 -90 11 -24 3 -70 8 -103 11 -83 8
-545 8 -625 0 -126 -12 -165 -16 -200 -21 -19 -3 -53 -8 -75 -10 -72 -9 -158
-25 -267 -48 -60 -13 -108 -22 -108 -20 0 2 7 19 14 38 8 19 12 35 9 35 -3 0
-1 6 5 13 18 22 84 259 99 352 2 17 6 41 9 55 30 155 35 518 9 651 -3 13 -12
64 -20 112 -17 95 -75 307 -101 366 -9 20 -20 45 -24 56 -7 18 -18 43 -76 170
-8 17 -25 48 -39 70 -14 22 -30 51 -37 65 -20 39 -125 188 -183 260 -66 81
-201 219 -280 286 -67 58 -268 202 -293 211 -10 4 -19 10 -22 13 -12 16 -299
152 -317 150 -2 0 -28 11 -58 25 -30 13 -55 22 -55 20 0 -3 -17 2 -37 9 -60
23 -213 59 -300 71 -26 4 -59 9 -73 11 -48 8 -327 23 -333 18z"/>
<path d="M5634 6171 c-2 -2 -4 -539 -4 -1193 l0 -1188 80 0 c69 0 80 2 81 18
0 9 1 458 1 997 l1 980 41 -86 c23 -47 63 -132 90 -190 27 -57 75 -159 107
-226 33 -68 59 -125 59 -127 0 -2 29 -64 64 -138 114 -239 166 -349 166 -353
0 -1 29 -63 64 -136 35 -74 75 -159 89 -189 14 -30 51 -109 82 -175 89 -187
115 -245 115 -255 0 -6 5 -10 10 -10 6 0 10 -4 10 -10 0 -10 41 -102 89 -200
27 -54 28 -55 73 -58 43 -3 46 -1 58 30 8 18 24 56 36 83 12 28 65 147 117
266 53 120 105 238 116 263 12 25 31 67 42 94 12 26 32 72 46 102 24 53 44 99
48 110 5 16 45 105 100 225 12 28 64 145 115 260 51 116 95 215 98 220 4 6 7
15 8 20 2 9 125 286 174 390 18 39 18 25 19 -875 1 -503 3 -928 5 -945 2 -16
7 -55 10 -85 25 -215 101 -364 236 -462 31 -22 129 -65 185 -82 48 -14 236
-32 283 -27 7 1 12 16 12 40 0 37 -1 39 -41 45 -123 20 -219 137 -264 321 -37
152 -39 199 -39 1412 -1 747 -4 1133 -11 1134 -5 1 -92 2 -193 3 l-182 1 -19
-40 c-21 -43 -37 -79 -101 -225 -23 -52 -53 -119 -66 -148 -13 -29 -24 -57
-24 -62 0 -6 -5 -10 -10 -10 -6 0 -9 -4 -8 -8 2 -5 -9 -35 -24 -68 -14 -32
-36 -81 -48 -109 -13 -27 -33 -72 -45 -100 -12 -27 -39 -88 -60 -135 -21 -47
-52 -116 -70 -155 -67 -146 -120 -270 -117 -277 1 -5 -2 -8 -8 -8 -5 0 -10 -4
-10 -10 0 -10 -69 -168 -113 -260 -12 -25 -22 -47 -22 -50 -3 -19 -31 -80 -37
-80 -4 0 -8 -7 -8 -15 0 -9 -11 -38 -25 -65 -14 -27 -25 -56 -25 -63 0 -8 -7
-20 -15 -27 -8 -7 -15 -21 -15 -31 0 -35 -15 -20 -43 44 -29 63 -35 76 -55
112 -6 11 -22 45 -36 75 -40 91 -113 247 -217 465 -18 39 -34 72 -34 75 -1 3
-23 50 -49 105 -26 55 -59 125 -73 155 -14 30 -54 115 -89 189 -35 73 -64 135
-64 137 0 1 -25 56 -56 121 -98 205 -150 316 -184 391 -18 39 -38 73 -44 73
-31 4 -378 3 -382 0z"/>
</g>
</svg>
